<?xml version="1.0" standalone="no"?>
<!DOCTYPE svg PUBLIC "-//W3C//DTD SVG 20010904//EN"
 "http://www.w3.org/TR/2001/REC-SVG-20010904/DTD/svg10.dtd">
<svg version="1.0" xmlns="http://www.w3.org/2000/svg"
 width="84.000000pt" height="84.000000pt" viewBox="0 0 84.000000 84.000000"
 preserveAspectRatio="xMidYMid meet">

<g transform="translate(0.000000,84.000000) scale(0.100000,-0.100000)"
fill="#000000" stroke="none">
<path d="M544 728 c-55 -58 -78 -94 -98 -152 -20 -60 -20 -67 -1 -42 8 11 15
15 15 10 0 -5 14 -18 31 -28 31 -18 43 -38 53 -88 5 -23 12 -28 36 -28 38 0
38 10 -1 52 -76 82 -83 142 -28 245 21 40 37 73 35 73 -1 0 -20 -19 -42 -42z"/>
<path d="M336 564 c-49 -33 -71 -43 -76 -34 -10 16 -30 4 -30 -16 0 -12 -7
-14 -28 -9 -21 4 -33 1 -46 -14 -17 -18 -16 -21 9 -72 21 -40 29 -49 37 -38 5
8 11 10 14 4 11 -27 82 -123 87 -119 3 3 3 -3 0 -15 -4 -16 1 -23 21 -31 14
-5 26 -12 26 -15 0 -16 -26 -54 -63 -93 -23 -23 -36 -42 -31 -42 25 0 199 98
202 113 2 11 -3 17 -13 17 -10 0 12 20 48 45 l66 45 93 1 c144 2 187 18 85 33
-21 2 -66 16 -102 31 -35 14 -79 28 -97 32 l-33 6 19 -21 c11 -12 27 -22 38
-22 10 0 18 -5 18 -12 0 -6 -3 -8 -6 -5 -4 4 -28 -8 -53 -27 -25 -18 -56 -39
-69 -45 -22 -12 -23 -11 -12 10 11 20 10 21 -14 15 -22 -5 -26 -3 -27 16 0 14
-6 4 -15 -25 -17 -56 -34 -62 -31 -11 2 32 -2 38 -37 58 -33 18 -39 27 -41 56
-1 19 -5 42 -9 51 -6 13 -1 15 26 12 33 -4 32 -4 -9 16 -50 23 -58 47 -14 38
21 -4 34 -1 46 14 10 10 35 24 57 29 33 9 38 15 38 40 0 17 -1 30 -3 30 -1 0
-33 -21 -71 -46z m-102 -155 c-8 -14 -24 -10 -24 6 0 9 6 12 15 9 8 -4 12 -10
9 -15z"/>
<path d="M372 458 c-7 -7 -12 -22 -12 -34 0 -13 -5 -26 -10 -29 -15 -9 6 -42
32 -51 31 -11 49 -6 76 19 27 25 28 41 1 78 -22 31 -65 39 -87 17z m62 -23 c8
-23 -4 -45 -25 -45 -20 0 -39 28 -32 48 6 17 50 15 57 -3z"/>
<path d="M626 435 c4 -8 8 -15 10 -15 2 0 4 7 4 15 0 8 -4 15 -10 15 -5 0 -7
-7 -4 -15z"/>
</g>
</svg>
